<?xml version="1.0" standalone="no"?>
<!DOCTYPE svg PUBLIC "-//W3C//DTD SVG 20010904//EN"
 "http://www.w3.org/TR/2001/REC-SVG-20010904/DTD/svg10.dtd">
<svg version="1.0" xmlns="http://www.w3.org/2000/svg"
 width="96.000000pt" height="96.000000pt" viewBox="0 0 96.000000 96.000000"
 preserveAspectRatio="xMidYMid meet">
<metadata>
Created by potrace 1.14, written by Peter Selinger 2001-2017
</metadata>
<g transform="translate(0.000000,96.000000) scale(0.100000,-0.100000)"
fill="#000000" stroke="none">
<path d="M365 861 c-39 -12 -54 -23 -67 -50 -22 -44 -103 -126 -147 -149 -49
-26 -70 -85 -67 -192 3 -101 23 -155 63 -172 32 -14 143 -117 143 -134 0 -45
107 -85 212 -79 93 5 140 25 160 66 22 43 104 124 148 147 43 22 62 73 63 172
1 115 -17 174 -60 192 -33 14 -143 117 -143 134 0 66 -185 105 -305 65z"/>
</g>
</svg>
